<svg width="215" height="183" viewBox="0 0 215 183" fill="none" xmlns="http://www.w3.org/2000/svg">
<path fill-rule="evenodd" clip-rule="evenodd" d="M36.0469 52.4894L50.4028 68.7717C53.7455 72.563 53.7455 78.7098 50.4028 82.5011C47.0601 86.2923 41.6405 86.2923 38.2978 82.5011L5.41739 45.2085C4.7636 44.467 4.4999 43.4506 4.6263 42.4873C4.6027 41.6395 4.87617 40.7831 5.4467 40.136L38.3271 2.84344C41.6698 -0.947812 47.0894 -0.947815 50.4321 2.84344C53.7748 6.63469 53.7748 12.7815 50.4321 16.5728L36.3986 32.4894H166.654C192.761 32.4894 214.08 53.3551 214.642 79.456L214.674 80.9241C214.793 86.4457 210.413 91.0182 204.892 91.1371C199.37 91.256 194.798 86.8763 194.679 81.3547L194.647 79.8866C194.319 64.6611 181.883 52.4894 166.654 52.4894H36.0469Z" fill="white"/>
<path fill-rule="evenodd" clip-rule="evenodd" d="M178.953 129.65L164.597 113.368C161.254 109.576 161.254 103.43 164.597 99.6384C167.94 95.8472 173.359 95.8472 176.702 99.6384L209.582 136.931C210.236 137.672 210.5 138.689 210.374 139.652C210.397 140.5 210.124 141.356 209.553 142.004L176.673 179.296C173.33 183.087 167.91 183.087 164.568 179.296C161.225 175.505 161.225 169.358 164.568 165.567L178.601 149.65L48.3462 149.65C22.2393 149.65 0.919486 128.784 0.357381 102.684L0.325765 101.215C0.206853 95.6939 4.58657 91.1213 10.1081 91.0024C15.6297 90.8835 20.2022 95.2632 20.3211 100.785L20.3527 102.253C20.6806 117.478 33.1172 129.65 48.3462 129.65L178.953 129.65Z" fill="white"/>
</svg>
